<mxfile host="app.diagrams.net" modified="2024-07-18T16:18:58.919Z" agent="Mozilla/5.0 (X11; Linux x86_64; rv:128.0) Gecko/20100101 Firefox/128.0" version="24.7.1" etag="PT9VAyF9MNEtv_85bCSd" type="github">
  <diagram name="Seite-1" id="y5GKtIau-StgIG61rP2W">
    <mxGraphModel>
      <root>
        <mxCell id="0" />
        <mxCell id="1" parent="0" />
      </root>
    </mxGraphModel>
  </diagram>
</mxfile>
